<?xml version="1.0" encoding="UTF-8" standalone="no"?>
<!-- Created with Inkscape (http://www.inkscape.org/) -->

<svg
   xmlns:dc="http://purl.org/dc/elements/1.1/"
   xmlns:cc="http://creativecommons.org/ns#"
   xmlns:rdf="http://www.w3.org/1999/02/22-rdf-syntax-ns#"
   xmlns:svg="http://www.w3.org/2000/svg"
   xmlns="http://www.w3.org/2000/svg"
   xmlns:sodipodi="http://sodipodi.sourceforge.net/DTD/sodipodi-0.dtd"
   xmlns:inkscape="http://www.inkscape.org/namespaces/inkscape"
   width="744.09448819"
   height="1052.3622047"
   id="svg2"
   version="1.1"
   inkscape:version="0.48.5 r10040"
   sodipodi:docname="order-seal-exported.svg"
   inkscape:export-filename="/home/kassius/Desktop/AASEAL/astrum-argentum-seal-exported.png"
   inkscape:export-xdpi="270.8049"
   inkscape:export-ydpi="270.8049">
  <defs
     id="defs4" />
  <sodipodi:namedview
     id="base"
     pagecolor="#ffffff"
     bordercolor="#666666"
     borderopacity="1.0"
     inkscape:pageopacity="0.0"
     inkscape:pageshadow="2"
     inkscape:zoom="1"
     inkscape:cx="339.5"
     inkscape:cy="615.5"
     inkscape:document-units="px"
     inkscape:current-layer="layer7"
     showgrid="false"
     showguides="false"
     inkscape:window-width="1364"
     inkscape:window-height="747"
     inkscape:window-x="0"
     inkscape:window-y="19"
     inkscape:window-maximized="1"
     inkscape:guide-bbox="true">
    <sodipodi:guide
       position="372.04725,191.34606"
       orientation="-132.63636,-275.42226"
       id="guide3011" />
    <sodipodi:guide
       position="96.624993,323.98242"
       orientation="-298.03121,-68.02369"
       id="guide3013" />
    <sodipodi:guide
       position="28.601303,622.01363"
       orientation="-239.00248,190.59811"
       id="guide3015" />
    <sodipodi:guide
       position="219.19941,861.01612"
       orientation="-8e-06,305.69564"
       id="guide3017" />
    <sodipodi:guide
       position="524.89505,861.01613"
       orientation="239.00247,190.59813"
       id="guide3019" />
    <sodipodi:guide
       position="715.49318,622.01365"
       orientation="298.03122,-68.02368"
       id="guide3021" />
    <sodipodi:guide
       position="647.4695,323.98243"
       orientation="132.63637,-275.42225"
       id="guide3023" />
    <sodipodi:guide
       orientation="0,1"
       position="380,768"
       id="guide3881" />
    <sodipodi:guide
       orientation="0,1"
       position="408,336"
       id="guide3883" />
    <sodipodi:guide
       orientation="0,1"
       position="644,548"
       id="guide3885" />
    <sodipodi:guide
       orientation="0,1"
       position="602,658"
       id="guide3887" />
    <sodipodi:guide
       orientation="0,1"
       position="600,424"
       id="guide3889" />
  </sodipodi:namedview>
  <metadata
     id="metadata7">
    <rdf:RDF>
      <cc:Work
         rdf:about="">
        <dc:format>image/svg+xml</dc:format>
        <dc:type
           rdf:resource="http://purl.org/dc/dcmitype/StillImage" />
        <dc:title></dc:title>
      </cc:Work>
    </rdf:RDF>
  </metadata>
  <g
     inkscape:groupmode="layer"
     id="layer2"
     inkscape:label="Star"
     style="display:inline">
    <path
       style="fill:none;stroke:#000000;stroke-width:18.15946388;stroke-linecap:butt;stroke-linejoin:miter;stroke-miterlimit:4;stroke-opacity:1;stroke-dasharray:none"
       d="m 287.93711,339.92579 -67.4511,295.52256 303.12246,10e-6 L 456.15738,339.9258 183.05347,471.4457 372.04724,708.4364 561.04101,471.44572 z"
       id="path3026"
       inkscape:connector-curvature="0" />
    <text
       xml:space="preserve"
       style="font-size:22.0114727px;font-style:normal;font-weight:normal;line-height:125%;letter-spacing:0px;word-spacing:0px;fill:#000000;fill-opacity:1;stroke:none;display:inline;font-family:Sans"
       x="359.51047"
       y="615.57642"
       id="text3997-3"
       sodipodi:linespacing="125%"><tspan
         sodipodi:role="line"
         id="tspan3999-37"
         x="359.51047"
         y="615.57642"
         style="font-size:45.1235199px;font-style:normal;font-variant:normal;font-weight:normal;font-stretch:normal;letter-spacing:0px;font-family:Roboto;-inkscape-font-specification:Roboto">7</tspan></text>
  </g>
  <g
     inkscape:groupmode="layer"
     id="layer3"
     inkscape:label="Daath and Upper Triad"
     style="display:inline">
    <path
       style="fill:none;stroke:#000000;stroke-width:17.8615303;stroke-linecap:butt;stroke-linejoin:miter;stroke-miterlimit:4;stroke-opacity:1;stroke-dasharray:none"
       d="m 372.04725,456.12568 c -19.63648,11.43046 -32.85621,32.70267 -32.85621,57.06118 0,24.35852 13.21973,45.60772 32.85621,57.03819 19.63646,-11.43047 32.8562,-32.67967 32.8562,-57.03819 0,-24.35851 -13.21974,-45.63072 -32.8562,-57.06118 z"
       id="path3000"
       inkscape:connector-curvature="0" />
    <path
       inkscape:connector-curvature="0"
       id="path3772-7-0"
       style="fill:#000000;fill-opacity:1;stroke:#000000;stroke-width:3.85200763;stroke-linecap:butt;stroke-linejoin:round;stroke-miterlimit:4;stroke-opacity:1;stroke-dasharray:none;display:inline"
       d="m 371.81763,440.69009 c -2.91606,0.56058 -5.84761,1.30686 -9.04313,5.22106 l 0,-10.44212 c 3.19695,4.29639 6.12519,4.83083 9.04313,5.22106 z m 0.45922,0 c 2.91606,-0.56058 5.84761,-1.30686 9.04314,-5.22106 l 0,10.44212 c -3.19696,-4.29639 -6.1252,-4.83083 -9.04314,-5.22106 z m -0.3073,-0.20885 c -0.56058,-2.91607 -1.30686,-5.84761 -5.22107,-9.04314 l 10.44213,0 c -4.2964,3.19696 -4.83083,6.1252 -5.22106,9.04314 z m 0.006,0.13506 c 0,9.7265 0,9.7265 0,9.7265" />
    <path
       style="fill:none;stroke:#000000;stroke-width:3;stroke-linecap:butt;stroke-linejoin:miter;stroke-miterlimit:4;stroke-opacity:1;stroke-dasharray:none"
       d="m 344.33929,513.21489 55.34493,-0.0791 0,0"
       id="path3880"
       inkscape:connector-curvature="0" />
    <flowRoot
       xml:space="preserve"
       id="flowRoot3901"
       style="font-size:40px;font-style:normal;font-weight:normal;line-height:125%;letter-spacing:0px;word-spacing:0px;fill:#000000;fill-opacity:1;stroke:none;font-family:Sans"
       transform="matrix(0.55028681,0,0,0.55028681,167.31455,236.63059)"><flowRegion
         id="flowRegion3903"><rect
           id="rect3905"
           width="468"
           height="126"
           x="82"
           y="32.362183" /></flowRegion><flowPara
         id="flowPara3907" /></flowRoot>    <path
       inkscape:connector-curvature="0"
       id="path3772-7-0-9"
       style="fill:#000000;fill-opacity:1;stroke:#000000;stroke-width:3.85200763;stroke-linejoin:round;stroke-miterlimit:4;stroke-opacity:1;stroke-dasharray:none;display:inline"
       d="m 422.52338,512.94575 c -0.56058,-2.91606 -1.30686,-5.84761 -5.22106,-9.04313 l 10.44212,0 c -4.29639,3.19695 -4.83083,6.12519 -5.22106,9.04313 z m 0,0.45922 c 0.56057,2.91606 1.30686,5.84761 5.22106,9.04314 l -10.44212,0 c 4.29639,-3.19695 4.83082,-6.1252 5.22106,-9.04314 z m 0.20885,-0.3073 c 2.91607,-0.56058 5.84761,-1.30686 9.04314,-5.22106 l 0,10.44212 c -3.19696,-4.29639 -6.1252,-4.83083 -9.04314,-5.22106 z m -0.13507,0.006 c -9.7265,0 -9.7265,0 -9.7265,0" />
    <path
       inkscape:connector-curvature="0"
       id="path3772-7-0-90"
       style="fill:#000000;fill-opacity:1;stroke:#000000;stroke-width:3.85200763;stroke-linejoin:round;stroke-miterlimit:4;stroke-opacity:1;stroke-dasharray:none;display:inline"
       d="m 321.57061,513.40497 c 0.56058,2.91606 1.30686,5.84761 5.22107,9.04314 l -10.44213,0 c 4.2964,-3.19696 4.83083,-6.1252 5.22106,-9.04314 z m 0,-0.45922 c -0.56058,-2.91606 -1.30685,-5.84761 -5.22106,-9.04313 l 10.44213,0 c -4.29641,3.19695 -4.83083,6.12519 -5.22107,9.04313 z m -0.20886,0.30731 c -2.91606,0.56057 -5.8476,1.30686 -9.04313,5.22106 l 0,-10.44212 c 3.19696,4.29639 6.1252,4.83083 9.04313,5.22106 z m 0.13508,-0.006 c 9.72649,0 9.72649,0 9.72649,0" />
  </g>
  <g
     inkscape:groupmode="layer"
     id="layer5"
     inkscape:label="Text Inside Star"
     style="display:inline">
    <flowRoot
       xml:space="preserve"
       id="flowRoot3910"
       style="font-size:40px;font-style:normal;font-weight:normal;line-height:125%;letter-spacing:0px;word-spacing:0px;fill:#000000;fill-opacity:1;stroke:none;font-family:Sans"
       transform="matrix(0.55028681,0,0,0.55028681,167.31455,234.63059)"><flowRegion
         id="flowRegion3912"><rect
           id="rect3914"
           width="674"
           height="122"
           x="46"
           y="78.362183" /></flowRegion><flowPara
         id="flowPara3916" /></flowRoot>    <flowRoot
       xml:space="preserve"
       id="flowRoot3922"
       style="font-size:40px;font-style:normal;font-weight:normal;line-height:125%;letter-spacing:0px;word-spacing:0px;fill:#000000;fill-opacity:1;stroke:none;font-family:Sans"
       transform="matrix(0.55028681,0,0,0.55028681,167.31455,234.63059)"><flowRegion
         id="flowRegion3924"><rect
           id="rect3926"
           width="458"
           height="65"
           x="83"
           y="87.362183" /></flowRegion><flowPara
         id="flowPara3928" /></flowRoot>    <text
       xml:space="preserve"
       style="font-size:35.21835709px;font-style:normal;font-weight:normal;line-height:125%;letter-spacing:0px;word-spacing:0px;fill:#000000;fill-opacity:1;stroke:none;font-family:Sans"
       x="237.20097"
       y="498.96756"
       id="text3930"
       sodipodi:linespacing="125%"><tspan
         sodipodi:role="line"
         x="237.20097"
         y="498.96756"
         style="font-size:35.21835709px;font-weight:bold;-inkscape-font-specification:Sans Bold"
         id="tspan3934"
         rotate="282.85715 0">B</tspan></text>
    <text
       xml:space="preserve"
       style="font-size:35.21835709px;font-style:normal;font-weight:normal;line-height:125%;letter-spacing:0px;word-spacing:0px;fill:#000000;fill-opacity:1;stroke:none;font-family:Sans"
       x="499.13751"
       y="468.15149"
       id="text3938"
       sodipodi:linespacing="125%"><tspan
         sodipodi:role="line"
         id="tspan3940"
         x="499.13751"
         y="468.15149"
         style="font-size:35.21835709px;font-weight:bold;-inkscape-font-specification:Sans Bold"
         rotate="77.14286 0">A</tspan></text>
    <text
       xml:space="preserve"
       style="font-size:35.21835709px;font-style:normal;font-weight:normal;line-height:125%;letter-spacing:0px;word-spacing:0px;fill:#000000;fill-opacity:1;stroke:none;font-family:Sans"
       x="298.28281"
       y="400.46622"
       id="text3942"
       sodipodi:linespacing="125%"><tspan
         sodipodi:role="line"
         id="tspan3944"
         x="298.28281"
         y="400.46622"
         style="font-size:35.21835709px;font-style:normal;font-variant:normal;font-weight:bold;font-stretch:normal;font-family:Sans;-inkscape-font-specification:Sans Bold"
         rotate="334.28571 0">A</tspan></text>
    <text
       xml:space="preserve"
       style="font-size:35.21835709px;font-style:normal;font-weight:normal;line-height:125%;letter-spacing:0px;word-spacing:0px;fill:#000000;fill-opacity:1;stroke:none;font-family:Sans"
       x="416.59448"
       y="387.8096"
       id="text3946"
       sodipodi:linespacing="125%"><tspan
         sodipodi:role="line"
         id="tspan3948"
         x="416.59448"
         y="387.8096"
         rotate="25.714285 0"
         style="font-size:35.21835709px;font-weight:bold;-inkscape-font-specification:Sans Bold">B</tspan></text>
    <text
       xml:space="preserve"
       style="font-size:35.21835709px;font-style:normal;font-weight:normal;line-height:125%;letter-spacing:0px;word-spacing:0px;fill:#000000;fill-opacity:1;stroke:none;font-family:Sans"
       x="387.08014"
       y="648.4444"
       id="text3950"
       sodipodi:linespacing="125%"><tspan
         sodipodi:role="line"
         id="tspan3952"
         x="387.08014"
         y="648.4444"
         rotate="180 0"
         style="font-size:35.21835709px;font-weight:bold;-inkscape-font-specification:Sans Bold">O</tspan></text>
    <flowRoot
       xml:space="preserve"
       id="flowRoot3962"
       style="font-size:40px;font-style:normal;font-weight:normal;line-height:125%;letter-spacing:0px;word-spacing:0px;fill:#000000;fill-opacity:1;stroke:none;font-family:Sans"
       transform="matrix(0.55028681,0,0,0.55028681,167.31455,234.63059)"><flowRegion
         id="flowRegion3964"><rect
           id="rect3966"
           width="85"
           height="56"
           x="646"
           y="572.36218" /></flowRegion><flowPara
         id="flowPara3968" /></flowRoot>    <text
       xml:space="preserve"
       style="font-size:35.21835709px;font-style:normal;font-weight:normal;line-height:125%;letter-spacing:0px;word-spacing:0px;fill:#000000;fill-opacity:1;stroke:none;font-family:Sans"
       x="484.83005"
       y="590.31519"
       id="text3970"
       sodipodi:linespacing="125%"><tspan
         sodipodi:role="line"
         id="tspan3972"
         x="484.83005"
         y="590.31519"
         rotate="128.57143 0"
         style="font-size:35.21835709px;font-weight:bold;-inkscape-font-specification:Sans Bold">L</tspan></text>
    <text
       xml:space="preserve"
       style="font-size:35.21835709px;font-style:normal;font-weight:normal;line-height:125%;letter-spacing:0px;word-spacing:0px;fill:#000000;fill-opacity:1;stroke:none;font-family:Sans"
       x="277.37192"
       y="611.22607"
       id="text3974"
       sodipodi:linespacing="125%"><tspan
         sodipodi:role="line"
         id="tspan3976"
         x="277.37192"
         y="611.22607"
         rotate="231.42857 0"
         style="font-size:35.21835709px;font-weight:bold;-inkscape-font-specification:Sans Bold">N</tspan></text>
    <text
       xml:space="preserve"
       style="font-size:22.0114727px;font-style:normal;font-weight:normal;line-height:125%;letter-spacing:0px;word-spacing:0px;fill:#000000;fill-opacity:1;stroke:none;font-family:Sans"
       x="262.08243"
       y="526.91888"
       id="text3997"
       sodipodi:linespacing="125%"><tspan
         sodipodi:role="line"
         id="tspan3999"
         x="262.08243"
         y="526.91888"
         style="font-size:45.1235199px;font-style:normal;font-variant:normal;font-weight:normal;font-stretch:normal;letter-spacing:-1.5px;font-family:Roboto;-inkscape-font-specification:Roboto"
         dx="0">77</tspan></text>
    <text
       xml:space="preserve"
       style="font-size:22.0114727px;font-style:normal;font-weight:normal;line-height:125%;letter-spacing:0px;word-spacing:0px;fill:#000000;fill-opacity:1;stroke:none;display:inline;font-family:Sans"
       x="432.71854"
       y="526.91888"
       id="text3997-5"
       sodipodi:linespacing="125%"><tspan
         sodipodi:role="line"
         id="tspan3999-6"
         x="432.71854"
         y="526.91888"
         style="font-size:45.1235199px;font-style:normal;font-variant:normal;font-weight:normal;font-stretch:normal;letter-spacing:-1.5px;font-family:Roboto;-inkscape-font-specification:Roboto"
         dx="0">77</tspan></text>
    <text
       xml:space="preserve"
       style="font-size:22.0114727px;font-style:normal;font-weight:normal;line-height:125%;letter-spacing:0px;word-spacing:0px;fill:#000000;fill-opacity:1;stroke:none;display:inline;font-family:Sans"
       x="318.93558"
       y="457.34689"
       id="text3997-7"
       sodipodi:linespacing="125%"><tspan
         sodipodi:role="line"
         id="tspan3999-3"
         x="318.93558"
         y="457.34689"
         style="font-size:45.12351989999999802px;font-style:normal;font-variant:normal;font-weight:normal;font-stretch:normal;letter-spacing:0px;font-family:Roboto;-inkscape-font-specification:Roboto">7</tspan></text>
    <text
       xml:space="preserve"
       style="font-size:22.0114727px;font-style:normal;font-weight:normal;line-height:125%;letter-spacing:0px;word-spacing:0px;fill:#000000;fill-opacity:1;stroke:none;display:inline;font-family:Sans"
       x="396.52695"
       y="457.34689"
       id="text3997-6"
       sodipodi:linespacing="125%"><tspan
         sodipodi:role="line"
         id="tspan3999-2"
         x="396.52695"
         y="457.34689"
         style="font-size:45.1235199px;font-style:normal;font-variant:normal;font-weight:normal;font-stretch:normal;letter-spacing:0px;font-family:Roboto;-inkscape-font-specification:Roboto">7</tspan></text>
  </g>
  <g
     inkscape:groupmode="layer"
     id="layer6"
     inkscape:label="Circle and Text"
     style="display:inline">
    <path
       sodipodi:type="arc"
       style="fill:none;stroke:#000000;stroke-width:1.07816088;stroke-linecap:butt;stroke-linejoin:round;stroke-miterlimit:4;stroke-opacity:1;stroke-dasharray:none"
       id="path3930"
       sodipodi:cx="364"
       sodipodi:cy="500.36218"
       sodipodi:rx="234"
       sodipodi:ry="234"
       d="m 598,500.36218 a 234,234 0 1 1 -468,0 234,234 0 1 1 468,0 z"
       transform="matrix(0.92750533,0,0,0.92750533,33.589721,51.491676)" />
    <path
       sodipodi:type="arc"
       style="fill:none;stroke:#000000;stroke-width:1.10352933;stroke-linecap:butt;stroke-linejoin:round;stroke-miterlimit:4;stroke-opacity:1;stroke-dasharray:none"
       id="path3930-9"
       sodipodi:cx="364"
       sodipodi:cy="500.36218"
       sodipodi:rx="234"
       sodipodi:ry="234"
       d="m 598,500.36218 a 234,234 0 1 1 -468,0 234,234 0 1 1 468,0 z"
       transform="matrix(0.90385165,0,0,0.90385165,42.497999,63.108999)" />
    <path
       style="fill:none;stroke:none"
       d="M 472.71334,312.49363 C 585.20679,367.78426 631.57888,503.80013 576.28828,616.2936 520.99766,728.78706 384.98179,775.15915 272.48832,719.86854 159.99486,664.57792 113.62276,528.56205 168.91337,416.06858 224.204,303.57513 360.21987,257.20304 472.71334,312.49363 z"
       id="path3930-9-6"
       inkscape:connector-curvature="0" />
    <g
       transform="matrix(0.9824212,0,0,0.9824212,6.4438342,9.499962)"
       style="font-size:40px;font-style:normal;font-weight:normal;text-align:start;line-height:125%;letter-spacing:6px;word-spacing:84px;writing-mode:lr-tb;text-anchor:start;fill:#000000;fill-opacity:1;stroke:none;font-family:Sans"
       id="text3969">
      <path
         d="m 491.59676,314.13469 c 0.54053,-0.96579 0.61303,-1.89511 0.21749,-2.78798 -0.38922,-0.90422 -1.31109,-2.13642 -2.7656,-3.6966 -1.4482,-1.57154 -2.53346,-2.92504 -3.25579,-4.0605 -1.96568,-3.09966 -2.22672,-5.9391 -0.78313,-8.51834 0.7504,-1.34072 1.79309,-2.3239 3.12808,-2.94952 1.35267,-0.63058 2.89882,-0.84702 4.63844,-0.64931 1.75095,0.20411 3.507,0.79901 5.26817,1.7847 1.77248,0.99209 3.17058,2.19987 4.19431,3.62335 1.03004,1.41214 1.59819,2.9164 1.70447,4.51278 0.11758,1.60276 -0.24015,3.14835 -1.0732,4.6368 l -5.113,-2.86174 c 0.63591,-1.13621 0.77086,-2.2171 0.40483,-3.24268 -0.35972,-1.03691 -1.18721,-1.91786 -2.48248,-2.64285 -1.24986,-0.69952 -2.37078,-0.97624 -3.36274,-0.83015 -0.98565,0.13475 -1.72012,0.63388 -2.20342,1.4974 -0.45153,0.80673 -0.42656,1.70854 0.0749,2.70543 0.51281,1.00328 1.42535,2.18549 2.73762,3.54665 2.41903,2.50291 3.93076,4.77403 4.53519,6.81337 0.60438,2.03934 0.36604,4.0248 -0.71504,5.95638 -1.20195,2.14745 -2.95872,3.38004 -5.27031,3.69778 -2.30527,0.30635 -4.83272,-0.30996 -7.58237,-1.84893 -1.90886,-1.06839 -3.45331,-2.38792 -4.63337,-3.95861 -1.17371,-1.58206 -1.83505,-3.21308 -1.98403,-4.89308 -0.13763,-1.67363 0.2419,-3.31148 1.13858,-4.91356 l 5.13004,2.87128 c -1.53262,2.73829 -0.66278,5.02319 2.60955,6.8547 1.21575,0.68046 2.30122,0.96718 3.25642,0.86017 0.96153,-0.11837 1.69032,-0.62069 2.18637,-1.50694"
         style="font-variant:normal;font-weight:bold;font-stretch:normal;word-spacing:70px;font-family:Roboto;-inkscape-font-specification:Roboto Bold"
         id="path3069" />
      <path
         d="m 506.40533,332.78755 -4.78201,-3.38595 16.43316,-23.20868 4.782,3.38595 -16.43315,23.20868"
         style="font-variant:normal;font-weight:bold;font-stretch:normal;word-spacing:70px;font-family:Roboto;-inkscape-font-specification:Roboto Bold"
         id="path3071" />
      <path
         d="m 534.80119,351.8466 c -1.62796,0.23959 -3.39479,-0.0202 -5.3005,-0.77924 -1.89707,-0.76882 -3.7197,-1.93376 -5.46789,-3.49483 -1.83561,-1.63914 -3.09226,-3.477 -3.76994,-5.51359 -0.65931,-2.03763 -0.68693,-4.15709 -0.0829,-6.35837 0.61376,-2.19261 1.83024,-4.32708 3.64943,-6.40342 l 1.28789,-1.44227 c 1.89062,-2.11724 3.87991,-3.63144 5.96787,-4.54259 2.10631,-0.91216 4.19387,-1.17775 6.26268,-0.79676 2.08715,0.37997 4.03397,1.37651 5.84047,2.98961 2.51543,2.24623 3.94444,4.6046 4.28705,7.07512 0.35121,2.46081 -0.36543,4.95434 -2.14991,7.48058 l -4.25395,-3.79863 c 0.88981,-1.38747 1.25117,-2.66207 1.08407,-3.8238 -0.15745,-1.15304 -0.81889,-2.24993 -1.98432,-3.29065 -1.486,-1.32691 -3.11615,-1.77882 -4.89046,-1.35574 -1.77435,0.4231 -3.65072,1.73264 -5.62911,3.92863 l -1.20983,1.35485 c -1.98606,2.2241 -3.06394,4.28157 -3.23367,6.17242 -0.16975,1.89085 0.5612,3.56478 2.19287,5.02179 1.64134,1.46567 3.12388,2.16109 4.44761,2.08625 l 3.26525,-3.65665 -3.97715,-3.55145 2.87499,-3.2196 8.34765,7.45415 -7.55823,8.46419"
         style="font-variant:normal;font-weight:bold;font-stretch:normal;word-spacing:70px;font-family:Roboto;-inkscape-font-specification:Roboto Bold"
         id="path3073" />
      <path
         d="m 543.85209,367.11869 -3.90258,-4.3706 21.21198,-18.94052 3.90258,4.3706 -21.21198,18.94052"
         style="font-variant:normal;font-weight:bold;font-stretch:normal;word-spacing:70px;font-family:Roboto;-inkscape-font-specification:Roboto Bold"
         id="path3075" />
      <path
         d="m 558.47865,377.80731 7.3163,10.06281 -3.80712,2.76802 -10.76198,-14.80197 23.00072,-16.72299 3.44567,4.73916 -19.19359,13.95497"
         style="font-variant:normal;font-weight:bold;font-stretch:normal;word-spacing:70px;font-family:Roboto;-inkscape-font-specification:Roboto Bold"
         id="path3078" />
      <path
         d="m 573.8571,401.39273 6.13445,10.82391 -4.09507,2.32088 -9.02352,-15.92151 24.74037,-14.02161 2.88907,5.09761 -20.6453,11.70072"
         style="font-variant:normal;font-weight:bold;font-stretch:normal;word-spacing:70px;font-family:Roboto;-inkscape-font-specification:Roboto Bold"
         id="path3080" />
      <path
         d="m 588.71445,426.41702 22.2243,-2.23931 2.49903,6.02579 -30.06154,1.74705 -2.3419,-5.64692 22.48962,-20.00482 2.49155,6.00775 -17.30106,14.11046"
         style="font-variant:normal;font-weight:bold;font-stretch:normal;word-spacing:70px;font-family:Roboto;-inkscape-font-specification:Roboto Bold"
         id="path3082" />
      <path
         d="m 619.45691,450.25984 -18.38474,11.86383 21.74457,2.31381 1.7745,7.48792 -27.67111,6.55753 -1.35564,-5.72047 7.56394,-1.79251 13.19147,-2.52396 -22.39029,-2.5823 -0.92779,-3.915 18.83581,-12.33204 -12.90224,3.65976 -7.56394,1.79251 -1.35114,-5.70147 27.67111,-6.55753 1.76549,7.44992"
         style="font-variant:normal;font-weight:bold;font-stretch:normal;word-spacing:70px;font-family:Roboto;-inkscape-font-specification:Roboto Bold"
         id="path3084" />
      <path
         d="m 594.75919,591.25466 c 1.05542,0.33318 1.98011,0.21547 2.77406,-0.35311 0.80637,-0.56471 1.82573,-1.71756 3.05809,-3.45856 1.24476,-1.73711 2.34971,-3.07458 3.31486,-4.01241 2.63599,-2.55409 5.36328,-3.38621 8.18191,-2.49637 1.46515,0.46254 2.63955,1.28389 3.5232,2.46405 0.89209,1.19646 1.41795,2.66646 1.57757,4.40999 0.15565,1.75592 -0.0703,3.59618 -0.67788,5.5208 -0.61154,1.93699 -1.51029,3.5512 -2.69626,4.84263 -1.17359,1.2953 -2.53116,2.15704 -4.07271,2.58524 -1.5455,0.44055 -3.13154,0.40409 -4.75812,-0.1094 l 1.76399,-5.58754 c 1.24166,0.39197 2.32744,0.30464 3.25733,-0.26199 0.94228,-0.56276 1.63687,-1.55189 2.08376,-2.96738 0.43118,-1.36586 0.47454,-2.51961 0.13009,-3.46125 -0.33207,-0.93776 -0.96993,-1.55559 -1.91359,-1.85349 -0.8816,-0.27833 -1.75956,-0.0708 -2.63386,0.62267 -0.87826,0.70583 -1.85057,1.8394 -2.91694,3.40071 -1.95961,2.87683 -3.87648,4.8182 -5.75062,5.8241 -1.87415,1.00586 -3.86665,1.17561 -5.9775,0.50924 -2.34676,-0.7409 -3.91037,-2.21081 -4.69083,-4.40974 -0.76803,-2.19505 -0.67774,-4.795 0.27089,-7.79984 0.65856,-2.08602 1.63703,-3.86623 2.9354,-5.34061 1.3108,-1.47048 2.77357,-2.44921 4.38832,-2.9362 1.61083,-0.47457 3.29162,-0.4355 5.04239,0.11722 l -1.76986,5.60617 c -2.99245,-0.94472 -5.05314,0.37093 -6.18209,3.94697 -0.41944,1.32858 -0.47979,2.44966 -0.18107,3.36324 0.31114,0.91746 0.95096,1.52908 1.91947,1.83486"
         style="font-variant:normal;font-weight:bold;font-stretch:normal;word-spacing:70px;font-family:Roboto;-inkscape-font-specification:Roboto Bold"
         id="path3086" />
      <path
         d="m 580.5823,620.9415 4.42054,-9.27374 -4.4488,-4.28429 2.68089,-5.62419 21.11529,21.79216 -2.33633,4.90133 -30.25051,-2.62759 2.6809,-5.6242 6.13802,0.74052 m 8.02407,-5.80346 -3.05909,6.41757 11.14668,1.3538 -8.08759,-7.77137"
         style="font-variant:normal;font-weight:bold;font-stretch:normal;word-spacing:70px;font-family:Roboto;-inkscape-font-specification:Roboto Bold"
         id="path3088" />
      <path
         d="m 554.44163,652.54938 3.26745,-4.86375 21.8922,0.96595 -15.53157,-10.43405 3.26745,-4.86375 23.6054,15.85801 -3.26745,4.86375 -21.93552,-0.97152 15.564,10.45583 -3.25656,4.84754 -23.6054,-15.85801"
         style="font-variant:normal;font-weight:bold;font-stretch:normal;word-spacing:70px;font-family:Roboto;-inkscape-font-specification:Roboto Bold"
         id="path3090" />
      <path
         d="m 539.47704,684.19464 c -2.11608,-2.2213 -3.13742,-4.67949 -3.06402,-7.37457 0.0647,-2.68548 1.21764,-5.26187 3.45892,-7.72919 2.45143,-2.69865 5.28789,-4.00085 8.50939,-3.90661 3.22239,0.11262 6.41903,1.60913 9.58994,4.48955 l 1.28668,1.1688 c 2.02397,1.83855 3.48306,3.81484 4.37728,5.92887 0.89419,2.114 1.15119,4.20331 0.77099,6.26791 -0.37934,2.08296 -1.36571,4.0015 -2.95912,5.75565 -2.20628,2.42874 -4.63412,3.79429 -7.28352,4.09665 -2.64941,0.30228 -5.25501,-0.49902 -7.81681,-2.4039 l 3.93978,-4.33711 c 1.45526,1.12842 2.78416,1.64073 3.9867,1.53695 1.20341,-0.0855 2.40922,-0.79319 3.61743,-2.12321 1.31324,-1.44572 1.77773,-3.00277 1.39347,-4.67114 -0.3834,-1.65002 -1.65544,-3.47398 -3.81611,-5.47188 l -1.59027,-1.44459 c -2.27457,-2.0662 -4.24793,-3.2343 -5.92008,-3.50429 -1.6809,-0.26037 -3.1955,0.35157 -4.54378,1.83584 -1.21694,1.33966 -1.81949,2.61298 -1.80765,3.81995 0.0127,1.22533 0.61626,2.4684 1.81056,3.72922 l -3.93978,4.3371"
         style="font-variant:normal;font-weight:bold;font-stretch:normal;word-spacing:70px;font-family:Roboto;-inkscape-font-specification:Roboto Bold"
         id="path3092" />
      <path
         d="m 524.33532,716.0777 6.69464,-5.57334 -15.158,-18.20763 4.50312,-3.74889 15.158,18.20763 6.60458,-5.49837 3.0366,3.64753 -17.80234,14.8206 -3.0366,-3.64753"
         style="font-variant:normal;font-weight:bold;font-stretch:normal;word-spacing:70px;font-family:Roboto;-inkscape-font-specification:Roboto Bold"
         id="path3094" />
      <path
         d="m 496.05069,715.01679 5.78212,21.57547 -5.5458,3.43502 -6.55587,-29.38994 5.19711,-3.21904 23.35932,18.98205 -5.5292,3.42473 -16.70768,-14.80829"
         style="font-variant:normal;font-weight:bold;font-stretch:normal;word-spacing:70px;font-family:Roboto;-inkscape-font-specification:Roboto Bold"
         id="path3096" />
      <path
         d="M 477.44539,749.18861 462.787,732.9442 l 1.20297,21.83421 -7.10647,2.95226 -10.90986,-26.2615 5.42906,-2.25541 2.98223,7.17863 4.60661,12.61603 -1.0415,-22.51463 3.71557,-1.54356 15.19285,16.61456 -5.68132,-12.14841 -2.98223,-7.17863 5.41103,-2.24791 10.90985,26.2615 -7.0704,2.93727"
         style="font-variant:normal;font-weight:bold;font-stretch:normal;word-spacing:70px;font-family:Roboto;-inkscape-font-specification:Roboto Bold"
         id="path3098" />
      <path
         d="m 331.46023,751.40991 11.14463,1.53613 1.58681,-11.51224 5.80449,0.80007 -3.88301,28.17115 -18.34221,-2.52823 0.64806,-4.70164 12.53771,1.72815 1.00276,-7.27496 -11.14463,-1.53614 0.64539,-4.68229"
         style="font-variant:normal;font-weight:bold;font-stretch:normal;word-spacing:70px;font-family:Roboto;-inkscape-font-specification:Roboto Bold"
         id="path3100" />
      <path
         d="m 309.4713,745.04608 4.50016,1.24034 2.76611,-10.03593 5.64875,1.5569 -7.5562,27.41524 -10.18657,-2.80762 c -3.23859,-0.89266 -5.53765,-2.30294 -6.89719,-4.23086 -1.35948,-1.92795 -1.67595,-4.20996 -0.94943,-6.84603 0.51554,-1.87037 1.35425,-3.32074 2.51613,-4.35112 1.14593,-1.02131 2.64314,-1.67565 4.49166,-1.96302 l -2.84331,-12.8381 0.0727,-0.2636 6.06298,1.67108 2.37425,11.45272 m 3.23907,5.81582 -4.55666,-1.2559 c -1.41844,-0.39097 -2.61541,-0.33595 -3.59091,0.16506 -0.97892,0.51354 -1.64311,1.40423 -1.99257,2.67207 -0.35634,1.29292 -0.26627,2.41176 0.27019,3.35652 0.52395,0.94126 1.54536,1.62122 3.06422,2.03987 l 4.53783,1.25072 2.2679,-8.22834"
         style="font-variant:normal;font-weight:bold;font-stretch:normal;word-spacing:70px;font-family:Roboto;-inkscape-font-specification:Roboto Bold"
         id="path3102" />
      <path
         d="m 275.12695,727.70867 9.44016,4.05301 4.10631,-4.61359 5.72512,2.45801 -20.94629,21.95464 -4.98929,-2.14209 1.43783,-30.33035 5.72511,2.45801 -0.49895,6.16236 m 6.11405,7.79001 -6.53273,-2.80474 -0.9151,11.19123 7.44783,-8.38649"
         style="font-variant:normal;font-weight:bold;font-stretch:normal;word-spacing:70px;font-family:Roboto;-inkscape-font-specification:Roboto Bold"
         id="path3104" />
      <path
         d="m 233.82483,725.25769 7.47613,4.47077 12.15931,-20.33307 5.02879,3.00725 -12.15931,20.33307 7.37556,4.41063 -2.43587,4.07332 -19.88048,-11.88865 2.43587,-4.07332"
         style="font-variant:normal;font-weight:bold;font-stretch:normal;word-spacing:70px;font-family:Roboto;-inkscape-font-specification:Roboto Bold"
         id="path3106" />
      <path
         d="m 217.30223,698.48967 8.82092,6.98239 4.72766,-5.97249 -10.35232,-8.19462 2.92145,-3.6907 14.94656,11.83128 -17.64995,22.29733 -14.91593,-11.80704 2.9457,-3.72133 10.3217,8.17038 4.20641,-5.31399 -8.82092,-6.9824 2.84872,-3.59881"
         style="font-variant:normal;font-weight:bold;font-stretch:normal;word-spacing:70px;font-family:Roboto;-inkscape-font-specification:Roboto Bold"
         id="path3108" />
      <path
         d="m 201.61263,680.91514 3.2427,3.3578 7.48831,-7.23164 4.07034,4.2148 -20.45586,19.75473 -7.34018,-7.6007 c -2.33363,-2.4165 -3.59507,-4.80048 -3.78431,-7.15194 -0.18918,-2.35148 0.69967,-4.47696 2.66654,-6.37645 1.3956,-1.34773 2.85567,-2.16946 4.3802,-2.46518 1.50618,-0.29603 3.12801,-0.0974 4.86552,0.59592 l 4.08551,-12.4984 0.19669,-0.18995 4.36883,4.5239 -3.78429,11.06711 m -0.17129,6.65477 -3.28341,-3.39994 c -1.02209,-1.05838 -2.08048,-1.62014 -3.17518,-1.68527 -1.10402,-0.0561 -2.12903,0.37265 -3.07505,1.28622 -0.9647,0.93165 -1.45653,1.94062 -1.4755,3.0269 -0.028,1.0769 0.50529,2.18201 1.59973,3.31533 l 3.26984,3.3859 6.13957,-5.92914"
         style="font-variant:normal;font-weight:bold;font-stretch:normal;word-spacing:70px;font-family:Roboto;-inkscape-font-specification:Roboto Bold"
         id="path3110" />
      <path
         d="m 181.52974,639.27263 3.41489,4.76138 -8.55705,20.17372 15.2047,-10.90488 3.41489,4.76138 -23.1086,16.5736 -3.41489,-4.76139 8.57741,-20.21235 -15.23644,10.92765 -3.40351,-4.74552 23.1086,-16.57359"
         style="font-variant:normal;font-weight:bold;font-stretch:normal;word-spacing:70px;font-family:Roboto;-inkscape-font-specification:Roboto Bold"
         id="path3112" />
      <path
         d="m 172.91802,624.14576 2.85517,5.11667 -24.8329,13.85708 -2.85517,-5.11666 24.8329,-13.85709"
         style="font-variant:normal;font-weight:bold;font-stretch:normal;word-spacing:70px;font-family:Roboto;-inkscape-font-specification:Roboto Bold"
         id="path3114" />
      <path
         d="m 137.60743,604.30714 3.46519,7.99205 21.73623,-9.42439 2.33084,5.37582 -21.73622,9.42439 3.41857,7.88453 -4.35441,1.88799 -9.21462,-21.2524 4.35442,-1.88799"
         style="font-variant:normal;font-weight:bold;font-stretch:normal;word-spacing:70px;font-family:Roboto;-inkscape-font-specification:Roboto Bold"
         id="path3116" />
      <path
         d="m 147.08044,574.37773 2.83753,9.8738 6.1709,0.25879 1.72086,5.9881 -30.25513,-2.31969 -1.49968,-5.21847 24.39126,-18.08492 1.72086,5.98811 -5.0866,3.51428 m -2.1609,9.66419 -1.96361,-6.83283 -9.24326,6.37521 11.20687,0.45762"
         style="font-variant:normal;font-weight:bold;font-stretch:normal;word-spacing:70px;font-family:Roboto;-inkscape-font-specification:Roboto Bold"
         id="path3118" />
      <path
         d="m 122.8641,540.81714 1.2605,8.61925 23.44206,-3.42821 0.84787,5.7977 -23.44206,3.42822 1.24354,8.5033 -4.69614,0.68678 -3.35191,-22.92027 4.69614,-0.68677"
         style="font-variant:normal;font-weight:bold;font-stretch:normal;word-spacing:70px;font-family:Roboto;-inkscape-font-specification:Roboto Bold"
         id="path3120" />
      <path
         d="m 145.64412,521.79321 0.22605,5.85501 -28.41633,1.0971 -0.22605,-5.85501 28.41633,-1.0971"
         style="font-variant:normal;font-weight:bold;font-stretch:normal;word-spacing:70px;font-family:Roboto;-inkscape-font-specification:Roboto Bold"
         id="path3122" />
      <path
         d="m 139.00966,495.15188 c -1.10419,-0.0754 -1.9752,0.25662 -2.61303,0.99611 -0.6508,0.73863 -1.37019,2.09901 -2.15816,4.08115 -0.80094,1.98128 -1.56007,3.54124 -2.27737,4.67989 -1.9608,3.10275 -4.41563,4.5534 -7.36451,4.35196 -1.53286,-0.10472 -2.86758,-0.62658 -4.00417,-1.5656 -1.14864,-0.95289 -2.0057,-2.25783 -2.5712,-3.91481 -0.56456,-1.66996 -0.77807,-3.5117 -0.64055,-5.52525 0.13846,-2.02651 0.63204,-3.80691 1.48074,-5.34119 0.83576,-1.53513 1.95237,-2.69219 3.34983,-3.47118 1.39839,-0.79193 2.94846,-1.12978 4.6502,-1.01355 l -0.39933,5.84575 c -1.29904,-0.0887 -2.33376,0.2517 -3.10417,1.02128 -0.78335,0.76873 -1.22562,1.89354 -1.32681,3.37445 -0.0976,1.42898 0.13181,2.56052 0.68821,3.39464 0.54346,0.83326 1.30881,1.2836 2.29608,1.35104 0.92234,0.063 1.72678,-0.34535 2.41332,-1.2251 0.68746,-0.89271 1.36565,-2.22328 2.03459,-3.99171 1.22747,-3.25723 2.63356,-5.59522 4.2183,-7.01397 1.58476,-1.41871 3.48133,-2.05264 5.68972,-1.90181 2.45522,0.16775 4.32087,1.22835 5.59694,3.18182 1.26309,1.95262 1.78726,4.50078 1.57251,7.64448 -0.14909,2.18242 -0.68107,4.14291 -1.59596,5.88146 -0.92787,1.73769 -2.1192,3.0332 -3.57397,3.88656 -1.45388,0.84037 -3.09665,1.19799 -4.92833,1.07286 l 0.40067,-5.86524 c 3.13073,0.21388 4.82387,-1.54983 5.07945,-5.29112 0.0949,-1.38997 -0.11025,-2.49376 -0.6156,-3.31137 -0.51833,-0.81846 -1.28414,-1.26231 -2.2974,-1.33155"
         style="font-variant:normal;font-weight:bold;font-stretch:normal;word-spacing:70px;font-family:Roboto;-inkscape-font-specification:Roboto Bold"
         id="path3124" />
      <path
         d="m 181.61625,382.87373 -5.68363,8.55803 3.80046,4.86862 -3.44692,5.19013 -17.83262,-24.55099 3.0039,-4.52306 29.57807,6.86548 -3.44691,5.19014 -5.97235,-1.59835 m -8.76201,4.61445 3.93316,-5.92229 -10.84454,-2.91152 6.91138,8.83381"
         style="font-variant:normal;font-weight:bold;font-stretch:normal;word-spacing:70px;font-family:Roboto;-inkscape-font-specification:Roboto Bold"
         id="path3126" />
      <path
         d="m 188.15455,348.90249 c -1.06356,1.17384 -0.97334,3.00444 0.2005,4.068 1.17383,1.06356 3.00443,0.97334 4.06799,-0.2005 1.06356,-1.17383 0.97334,-3.00443 -0.16492,-4.03577 -1.20941,-1.09579 -3.00778,-1.04113 -4.10357,0.16827 m 6.08058,17.88086 c -1.06356,1.17383 -0.97334,3.00443 0.2005,4.06799 1.17383,1.06356 3.00443,0.97334 4.068,-0.20049 1.06356,-1.17384 0.97333,-3.00444 -0.16493,-4.03577 -1.20941,-1.09579 -3.00778,-1.04114 -4.10357,0.16827 m 12.24708,-13.5169 c -1.06356,1.17383 -0.97334,3.00443 0.2005,4.06799 1.17383,1.06356 3.00444,0.97334 4.068,-0.2005 1.06356,-1.17383 0.97333,-3.00443 -0.16493,-4.03576 -1.20941,-1.09579 -3.00778,-1.04114 -4.10357,0.16827"
         style="font-size:48px;font-family:FreeMono;-inkscape-font-specification:FreeMono Bold"
         id="path3128" />
      <path
         d="m 229.2375,332.5985 -7.95991,6.49487 2.191,5.77464 -4.8274,3.9389 -9.77614,-28.72596 4.20695,-3.43265 26.22562,15.30406 -4.8274,3.9389 -5.23272,-3.29276 m -9.73463,1.81741 5.50839,-4.49455 -9.4988,-5.98782 3.99041,10.48237"
         style="font-variant:normal;font-weight:bold;font-stretch:normal;word-spacing:70px;font-family:Roboto;-inkscape-font-specification:Roboto Bold"
         id="path3130" />
      <path
         d="m 245.52134,302.08493 c -1.36276,0.80743 -1.81711,2.58305 -1.00968,3.9458 0.80743,1.36276 2.58304,1.81712 3.9458,1.00969 1.36275,-0.80743 1.81711,-2.58305 1.03415,-3.90451 -0.8319,-1.40405 -2.56622,-1.88288 -3.97027,-1.05098 m 0.52939,18.87904 c -1.36276,0.80743 -1.81712,2.58304 -1.00969,3.9458 0.80743,1.36276 2.58305,1.81712 3.9458,1.00969 1.36276,-0.80744 1.81712,-2.58305 1.03416,-3.90451 -0.8319,-1.40405 -2.56622,-1.88288 -3.97027,-1.05098 m 15.69236,-9.2977 c -1.36275,0.80743 -1.81711,2.58304 -1.00968,3.9458 0.80743,1.36276 2.58304,1.81712 3.9458,1.00969 1.36276,-0.80744 1.81712,-2.58305 1.03415,-3.90451 -0.8319,-1.40405 -2.56621,-1.88288 -3.97027,-1.05098"
         style="font-size:48px;font-family:FreeMono;-inkscape-font-specification:FreeMono Bold"
         id="path3132" />
    </g>
    <path
       sodipodi:type="arc"
       style="fill:none;stroke:none"
       id="path3995"
       sodipodi:cx="366"
       sodipodi:cy="510.36218"
       sodipodi:rx="300"
       sodipodi:ry="300"
       d="m 666,510.36218 a 300,300 0 1 1 -600,0 300,300 0 1 1 600,0 z" />
    <path
       sodipodi:type="arc"
       style="fill:none;stroke:#000000;stroke-width:0.7243248;stroke-linecap:butt;stroke-linejoin:round;stroke-miterlimit:4;stroke-opacity:1;stroke-dasharray:none"
       id="path3833"
       sodipodi:cx="220"
       sodipodi:cy="288.36218"
       sodipodi:rx="188"
       sodipodi:ry="188"
       d="m 408,288.36218 a 188,188 0 1 1 -376,0 188,188 0 1 1 376,0 z"
       transform="matrix(1.3805961,0,0,1.3805961,68.582866,117.80266)" />
    <path
       sodipodi:type="arc"
       style="fill:none;stroke:#000000;stroke-width:0.71065831;stroke-linecap:butt;stroke-linejoin:round;stroke-miterlimit:4;stroke-opacity:1;stroke-dasharray:none"
       id="path3833-5"
       sodipodi:cx="220"
       sodipodi:cy="288.36218"
       sodipodi:rx="188"
       sodipodi:ry="188"
       d="m 408,288.36218 a 188,188 0 1 1 -376,0 188,188 0 1 1 376,0 z"
       transform="matrix(1.4095699,0,0,1.4095699,61.894624,109.36091)" />
    <flowRoot
       xml:space="preserve"
       id="flowRoot3062"
       style="fill:black;stroke:none;stroke-opacity:1;stroke-width:1px;stroke-linejoin:miter;stroke-linecap:butt;fill-opacity:1;font-family:Sans;font-style:normal;font-weight:normal;font-size:40px;line-height:125%;letter-spacing:0px;word-spacing:0px"><flowRegion
         id="flowRegion3064"><rect
           id="rect3066"
           width="113"
           height="47"
           x="442"
           y="299.36218" /></flowRegion><flowPara
         id="flowPara3068" /></flowRoot>  </g>
  <g
     inkscape:groupmode="layer"
     id="layer7"
     inkscape:label="Pantacle"
     style="display:inline">
    <path
       id="path3077"
       style="fill:none;stroke:#000000;stroke-width:1.3;stroke-linecap:butt;stroke-linejoin:miter;stroke-miterlimit:4;stroke-opacity:1;stroke-dasharray:none"
       d="m 361.21822,287.92711 21.65804,-21.65802 m -21.62428,0.0337 21.59052,21.59052 m 0.23436,-21.82488 c 6.09148,6.09149 6.0915,15.96773 0,22.05924 -6.0915,6.09149 -15.96774,6.09149 -22.05924,0 -6.0915,-6.09151 -6.09149,-15.96775 0,-22.05924 6.09151,-6.0915 15.96774,-6.0915 22.05924,0 z"
       inkscape:connector-curvature="0" />
  </g>
</svg>
